<svg width="40" height="41" viewBox="0 0 40 41" fill="none" xmlns="http://www.w3.org/2000/svg">
<circle cx="20" cy="19.1821" r="17.5" fill="#fff"/>
<path d="M30.96 19.4945C30.96 13.2434 25.9232 8.17578 19.71 8.17578C13.4968 8.17578 8.45996 13.2434 8.45996 19.4945C8.45996 25.1439 12.5739 29.8266 17.9521 30.6758V22.7664H15.0957V19.4945H17.9521V17.0009C17.9521 14.1641 19.6318 12.5972 22.2014 12.5972C23.4324 12.5972 24.7197 12.8182 24.7197 12.8182V15.6037H23.3012C21.9037 15.6037 21.4678 16.4763 21.4678 17.3714V19.4945H24.5878L24.0891 22.7664H21.4678V30.6758C26.8461 29.8266 30.96 25.1442 30.96 19.4945Z" fill="#B4307F"/>
</svg>
