<svg width="41" height="41" viewBox="0 0 41 41" fill="none" xmlns="http://www.w3.org/2000/svg">
<circle cx="20.7651" cy="19.3691" r="17.5" fill="#F4C977"/>
<path d="M29.932 16.9359C29.932 18.2145 28.8866 19.2692 27.5986 19.2692C26.3106 19.2692 25.2653 18.2145 25.2653 16.9359C25.2653 18.2145 24.2199 19.2692 22.9319 19.2692C21.6439 19.2692 20.5986 18.2145 20.5986 16.9359C20.5986 18.2145 19.5532 19.2692 18.2652 19.2692C16.9772 19.2692 15.9318 18.2145 15.9318 16.9359C15.9318 18.2145 14.8865 19.2692 13.5985 19.2692C12.3105 19.2692 11.2651 18.2145 11.2651 16.9359L12.5625 11.8771C12.5625 11.8771 12.8332 10.8691 13.7852 10.8691H27.4119C28.364 10.8691 28.6346 11.8771 28.6346 11.8771L29.932 16.9359ZM28.9986 20.3892V27.6693C28.9986 28.696 28.1586 29.536 27.1319 29.536H14.0652C13.0385 29.536 12.1985 28.696 12.1985 27.6693V20.3892C12.812 20.6426 13.4825 20.726 14.1394 20.6307C14.7964 20.5355 15.4155 20.2651 15.9318 19.8479C16.5759 20.3612 17.3879 20.6692 18.2652 20.6692C19.1519 20.6692 19.9639 20.3612 20.5986 19.8479C21.2426 20.3612 22.0546 20.6692 22.9319 20.6692C23.8186 20.6692 24.6306 20.3612 25.2653 19.8479C25.8999 20.3612 26.7213 20.6692 27.5986 20.6692C28.0933 20.6692 28.5693 20.5666 28.9986 20.3892ZM27.1319 25.1773C27.1319 24.9906 27.1319 24.7946 27.0853 24.5893L27.0573 24.4399H24.2853V25.5319H25.9746C25.9186 25.7373 25.8439 25.9426 25.6853 26.1106C25.3773 26.4186 24.9573 26.5866 24.5093 26.5866C24.0426 26.5866 23.5852 26.3906 23.2492 26.0639C22.6052 25.4013 22.6052 24.3279 23.2679 23.6559C23.9119 23.0026 24.9759 23.0026 25.6479 23.6279L25.7786 23.7493L26.5626 22.9559L26.4133 22.8252C25.8906 22.3399 25.1999 22.0692 24.4719 22.0692H24.4626C23.7066 22.0692 22.9972 22.3586 22.4652 22.8812C21.9146 23.4226 21.6066 24.1319 21.6066 24.8693C21.6066 25.6159 21.8959 26.3066 22.4279 26.8199C22.9823 27.3611 23.7252 27.6656 24.4999 27.6693H24.5186C25.2653 27.6693 25.9279 27.3986 26.4133 26.9226C26.8519 26.4746 27.1319 25.8026 27.1319 25.1773Z" fill="black"/>
</svg>
