<svg width="40" height="41" viewBox="0 0 40 41" fill="none" xmlns="http://www.w3.org/2000/svg">
<circle cx="20" cy="19.1821" r="17.5" fill="#fff"/>
<path fill-rule="evenodd" clip-rule="evenodd" d="M24.21 9.30078H15.21C12.1034 9.30078 9.58496 11.8192 9.58496 14.9258V23.9258C9.58496 27.0324 12.1034 29.5508 15.21 29.5508H24.21C27.3165 29.5508 29.835 27.0324 29.835 23.9258V14.9258C29.835 11.8192 27.3165 9.30078 24.21 9.30078ZM27.8662 23.9258C27.86 25.9425 26.2266 27.5758 24.21 27.582H15.21C13.1932 27.5758 11.5599 25.9425 11.5537 23.9258V14.9258C11.5599 12.909 13.1932 11.2757 15.21 11.2695H24.21C26.2266 11.2757 27.86 12.909 27.8662 14.9258V23.9258ZM25.0537 15.207C25.675 15.207 26.1787 14.7033 26.1787 14.082C26.1787 13.4607 25.675 12.957 25.0537 12.957C24.4324 12.957 23.9287 13.4607 23.9287 14.082C23.9287 14.7033 24.4324 15.207 25.0537 15.207ZM19.71 14.3633C16.914 14.3633 14.6475 16.6298 14.6475 19.4258C14.6475 22.2217 16.914 24.4883 19.71 24.4883C22.5059 24.4883 24.7725 22.2217 24.7725 19.4258C24.7755 18.0822 24.243 16.7928 23.293 15.8427C22.3429 14.8927 21.0535 14.3603 19.71 14.3633ZM16.6162 19.4258C16.6162 21.1344 18.0013 22.5195 19.71 22.5195C21.4186 22.5195 22.8037 21.1344 22.8037 19.4258C22.8037 17.7171 21.4186 16.332 19.71 16.332C18.0013 16.332 16.6162 17.7171 16.6162 19.4258Z" fill="#B4307F"/>
</svg>
