<svg width="85" height="87" viewBox="0 0 85 87" fill="none" xmlns="http://www.w3.org/2000/svg">
<g clip-path="url(#clip0_6004_3102)">
<path fill-rule="evenodd" clip-rule="evenodd" d="M14.3134 40.3279C14.3134 40.7467 14.3269 41.2465 14.4217 41.6653L13.4332 41.7194L34.1652 85.3948C34.3412 85.8136 34.761 86.0703 35.235 86.0703C35.6683 86.0703 36.1152 85.8001 36.2912 85.3948C36.2912 85.3948 48.7494 58.4303 53.4483 47.785C54.2472 45.9343 54.8295 44.5833 55.1139 43.9079C55.4795 42.9352 55.1545 42.3003 55.1139 42.2192C52.4733 38.0178 41.613 15.5789 36.7787 6.51421C35.8037 4.75801 35.0589 3.48814 34.6798 2.90724C34.0569 1.9751 33.2985 1.85352 33.1225 1.85352C33.0819 1.85352 32.0798 1.89404 31.5111 3.04233C31.2267 3.60972 30.6715 4.83906 29.8861 6.5007C25.4716 16.1598 14.3675 40.8413 14.3675 40.8413L14.3134 40.3009V40.3279ZM33.0413 6.68983C33.2985 7.10862 33.61 7.56794 33.8808 8.04076C38.4037 16.7407 48.8442 37.2883 52.216 42.9622C51.7692 43.2459 51.5796 45.1237 50.889 46.6908C47.165 55.4583 38.2547 75.3034 35.2214 82.0986L15.9113 40.3009V40.8007C16.155 40.8818 16.155 41.0034 15.9113 41.1115L14.9634 41.1655C14.9634 41.1655 27.408 17.119 32.4319 7.77058L33.0548 6.68983H33.0413Z" fill="#F4C977"/>
<path fill-rule="evenodd" clip-rule="evenodd" d="M51.4712 7.59524H51.4306L48.9525 8.75704L47.3817 9.44601L46.5015 9.82427L45.9869 10.0809L45.5536 10.3376C45.1474 10.5808 45.0526 10.8105 45.0661 10.9185C45.0119 11.1752 45.1067 11.5129 45.5942 11.567C45.9057 11.6075 46.7453 11.4589 46.9484 11.4319L50.2525 11.2968L51.39 11.1212L51.6879 13.1611L52.7035 16.1466C52.7035 16.1466 53.0421 17.1193 53.2046 17.457C53.3941 17.8083 53.7462 17.7812 53.8139 17.7407L54.3285 15.7684L54.816 12.2289L54.7889 10.4727L55.6826 10.2836L59.0951 8.9867L60.4493 7.71683C60.4493 7.71683 60.3545 7.36559 60.0024 7.32506C59.6097 7.28453 58.6347 7.27102 58.567 7.27102L55.29 7.23049L54.5181 7.25751L54.4098 6.01466L53.4348 1.82679L52.9202 0.259713C52.7306 0.0840922 52.5275 0.0976014 52.3921 0.151639C52.2566 0.205676 52.04 0.786574 51.9587 1.05676L51.7421 2.67787L51.39 7.31155C51.3629 7.43313 51.4035 7.54121 51.4848 7.62226L51.4712 7.59524ZM52.6087 2.54278L52.5817 2.7184L52.0129 7.40612C51.9858 7.5277 51.9181 7.60875 51.8233 7.64928V7.6763C51.9317 7.81139 51.9181 7.98701 51.7827 8.08158L49.4265 9.64865L47.8286 10.3782L47.6255 10.4592L50.1983 10.4187L52.0942 10.6348L52.8525 12.8909L53.4212 15.3496L53.5566 12.2424L53.6379 10.0404C53.7327 9.79726 53.9223 9.5676 54.2608 9.419C54.5993 9.25688 55.1139 9.16232 55.3577 9.10828L58.6076 7.98701L55.2358 8.12211L53.8275 7.93298L53.3806 6.17677L52.6087 2.58331V2.54278ZM46.2036 10.6348C46.014 10.4727 45.7432 10.4052 45.7161 10.5808C45.689 10.7159 45.9328 10.6889 46.2036 10.6348Z" fill="#F4C977"/>
<path fill-rule="evenodd" clip-rule="evenodd" d="M78.2563 40.5036L76.4959 41.2601L75.3585 41.76L74.7085 42.0436L74.3428 42.2328L74.0043 42.4219C73.6928 42.6381 73.5981 42.8407 73.571 42.9353C73.5304 43.1784 73.6251 43.5026 74.0855 43.5567C74.3158 43.5837 74.9522 43.4756 75.1012 43.4486L77.4845 43.3405L78.2428 43.1649L78.4053 44.6239L79.1636 46.7989C79.1636 46.7989 79.4344 47.5149 79.5699 47.7581C79.7459 48.0958 80.0438 48.0553 80.1386 48.0012L80.5855 46.4882L80.9646 43.8944V42.6786L81.4792 42.6381L84.0115 41.6654L85 40.6117C85 40.6117 84.9323 40.2739 84.5938 40.2334C84.3094 40.1929 83.6052 40.1794 83.5511 40.1794L81.1542 40.1253L80.6803 40.1794L80.6532 39.3418L79.9355 36.2887L79.5292 35.0864C79.3126 34.9108 79.1365 34.9243 79.0147 34.9783C78.8657 35.0323 78.6897 35.4916 78.622 35.7213L78.4324 36.9236L78.2022 40.2874C78.2022 40.355 78.2022 40.436 78.2428 40.5036H78.2563ZM79.2313 37.5721L78.8928 40.409C78.8657 40.4901 78.8251 40.5576 78.7574 40.6117C78.8115 40.7332 78.7709 40.8818 78.649 40.9494L76.9699 42.1382L76.2522 42.4759H77.4709L78.9605 42.6651L79.5699 44.3402L79.7459 45.1238L79.773 43.9079L79.8271 42.2463L81.2084 41.4627L82.725 40.9494L81.1542 41.0304L80.0438 40.8683L79.6376 39.5174L79.2449 37.5991L79.2313 37.5721ZM74.6137 42.5975C74.4512 42.4489 74.221 42.4084 74.2074 42.584C74.1939 42.6921 74.4105 42.6516 74.6137 42.5975Z" fill="#F4C977"/>
<path fill-rule="evenodd" clip-rule="evenodd" d="M4.69884 77.0734L2.93844 77.8299L1.80096 78.3298L1.15097 78.6135L0.785346 78.8026L0.446808 78.9917C0.135354 79.2079 0.0405631 79.4105 0.0134801 79.5051C-0.0271445 79.7482 0.067646 80.0725 0.528057 80.1265C0.758263 80.1535 1.39471 80.0454 1.54367 80.0184L3.92697 79.9104L4.6853 79.7347L4.8478 81.1937L5.60612 83.3687C5.60612 83.3687 5.87695 84.0847 6.01236 84.3279C6.1884 84.6656 6.48632 84.6251 6.58111 84.5711L7.02798 83.058L7.40714 80.4642V79.2484L7.92172 79.2079L10.454 78.2352L11.4425 77.1815C11.4425 77.1815 11.3748 76.8438 11.0363 76.8032C10.7519 76.7627 10.0477 76.7492 9.99357 76.7492L7.59672 76.6952L7.12277 76.7492L7.09568 75.9116L6.37799 72.8585L5.97174 71.6562C5.75508 71.4806 5.57904 71.4941 5.45716 71.5481C5.30821 71.6022 5.13217 72.0615 5.06446 72.2911L4.87488 73.4935L4.64467 76.8573C4.64467 76.9248 4.64467 77.0059 4.6853 77.0734H4.69884ZM5.67383 74.1419L5.33529 76.9788C5.30821 77.0599 5.26758 77.1274 5.19987 77.1815C5.25404 77.3031 5.21342 77.4517 5.09154 77.5192L3.4124 78.708L2.6947 79.0458H3.91343L5.403 79.2349L6.01236 80.91L6.1884 81.6936L6.21549 80.4777L6.26965 78.8161L7.65089 78.0326L9.16753 77.5192L7.59672 77.6003L6.48632 77.4382L6.08007 76.0872L5.68737 74.1689L5.67383 74.1419ZM1.05618 79.1673C0.893678 79.0187 0.663472 78.9782 0.649931 79.1538C0.636389 79.2619 0.853053 79.2214 1.05618 79.1673Z" fill="#F4C977"/>
</g>
<defs>
<clipPath id="clip0_6004_3102">
<rect width="85" height="86" fill="white" transform="translate(0 0.0839844)"/>
</clipPath>
</defs>
</svg>
