<svg width="126" height="22" viewBox="0 0 126 22" fill="none" xmlns="http://www.w3.org/2000/svg">
<path d="M11.2627 0.633789L13.6343 7.9328H21.3089L15.1 12.4438L17.4716 19.7429L11.2627 15.2318L5.05378 19.7429L7.42538 12.4438L1.21646 7.9328H8.8911L11.2627 0.633789Z" fill="#F4C977"/>
<path d="M37.272 0.633789L39.6436 7.9328H47.3182L41.1093 12.4438L43.4809 19.7429L37.272 15.2318L31.0631 19.7429L33.4347 12.4438L27.2257 7.9328H34.9004L37.272 0.633789Z" fill="#F4C977"/>
<path d="M63.2812 0.633789L65.6528 7.9328H73.3275L67.1186 12.4438L69.4902 19.7429L63.2812 15.2318L57.0723 19.7429L59.4439 12.4438L53.235 7.9328H60.9097L63.2812 0.633789Z" fill="#F4C977"/>
<path d="M89.2905 0.633789L91.6621 7.9328H99.3368L93.1278 12.4438L95.4994 19.7429L89.2905 15.2318L83.0816 19.7429L85.4532 12.4438L79.2443 7.9328H86.9189L89.2905 0.633789Z" fill="#F4C977"/>
<path d="M115.3 0.633789L117.671 7.9328H125.346L119.137 12.4438L121.509 19.7429L115.3 15.2318L109.091 19.7429L111.462 12.4438L105.254 7.9328H112.928L115.3 0.633789Z" fill="#F4C977"/>
</svg>
